<svg xmlns="http://www.w3.org/2000/svg" width="1322" height="1020" viewBox="0 0 1322 1020" version="1.1">
	<path d="M 562.500 124.090 C 559.750 124.494, 554.688 124.864, 551.250 124.912 L 545 125 545 131.099 C 545 134.662, 544.323 138.624, 543.372 140.629 C 541.848 143.840, 541.858 144.185, 543.527 146.030 C 546.158 148.937, 546.953 148.518, 549.284 143 C 551.104 138.693, 551.785 138, 554.198 138 C 556.734 138, 557 138.333, 557 141.500 C 557 144.833, 557.167 145, 560.500 145 C 563.833 145, 564 144.833, 564 141.500 C 564 138.167, 564.167 138, 567.500 138 C 570.567 138, 571 137.690, 571 135.500 L 571 133 561 133 C 552.778 133, 551 132.733, 551 131.500 C 551 130.378, 552.198 129.998, 555.750 129.991 C 562.511 129.979, 571 128.855, 571 127.971 C 571 127.559, 570.212 126.352, 569.250 125.288 C 567.763 123.646, 566.748 123.466, 562.500 124.090 M 682.710 125 C 682.283 126.634, 681.346 127, 677.594 127 C 673.146 127, 673 127.096, 673 130.031 C 673 131.803, 672.377 133.302, 671.500 133.638 C 670.675 133.955, 670 135.291, 670 136.607 C 670 138.067, 670.585 139, 671.500 139 C 672.548 139, 673 140.056, 673 142.500 L 673 146 678 146 C 680.750 146, 683 146.450, 683 147 C 683 147.550, 680.525 148, 677.500 148 L 672 148 672 154 L 672 160 676.559 160 C 679.344 160, 680.878 160.389, 680.500 161 C 680.160 161.550, 677.659 162, 674.941 162 C 670.337 162, 670 162.171, 670 164.500 C 670 166.694, 670.432 167, 673.523 167 L 677.046 167 675.388 169.531 C 673.493 172.423, 673.479 172.395, 677.500 173.698 L 680.500 174.670 675.274 176.407 C 670.049 178.144, 670.049 178.145, 671.656 180.598 C 673.452 183.339, 674.245 183.262, 682.567 179.543 L 687.634 177.278 692.413 179.707 C 697.023 182.050, 697.262 182.073, 699.173 180.344 C 701.085 178.613, 701.211 178.629, 702.845 180.795 L 704.537 183.038 709.401 178.100 L 714.265 173.162 716.712 176.069 C 718.057 177.668, 720.451 179.897, 722.033 181.023 L 724.908 183.070 726.653 180.407 C 728.371 177.785, 728.353 177.703, 725.449 175.038 C 723.827 173.549, 721.441 171.166, 720.146 169.741 L 717.792 167.150 719.904 161.048 C 721.696 155.870, 723.912 144.565, 723.980 140.250 C 723.991 139.563, 724.900 139, 726 139 C 727.556 139, 728 138.333, 728 136 L 728 133 719.886 133 L 711.773 133 712.429 128.628 C 713.025 124.650, 712.878 124.200, 710.792 123.641 C 706.681 122.540, 706.372 122.913, 705.212 130.375 C 704.581 134.431, 703.161 140.169, 702.056 143.125 L 700.046 148.500 694.523 148.157 C 687.634 147.730, 687.214 146, 694 146 L 699 146 699 142.500 C 699 140.575, 699.450 139, 700 139 C 700.550 139, 701 137.875, 701 136.500 C 701 135.125, 700.550 134, 700 134 C 699.450 134, 699 132.425, 699 130.500 L 699 127 694.117 127 C 690.074 127, 689.143 126.656, 688.710 125 C 688.365 123.679, 687.346 123, 685.710 123 C 684.074 123, 683.056 123.679, 682.710 125 M 804.818 127.358 C 803.668 129.611, 801.599 133.159, 800.221 135.242 C 797.808 138.889, 797.781 139.100, 799.496 140.996 C 801.089 142.756, 801.217 144.466, 800.711 157.232 C 800.400 165.079, 799.588 173.183, 798.908 175.239 C 797.816 178.540, 797.889 179.220, 799.528 181.031 L 801.385 183.083 802.646 180.792 C 803.339 179.531, 804.409 176.137, 805.024 173.250 L 806.142 168 813.071 168 L 820 168 820 170.918 C 820 175.301, 819.031 177, 816.532 177 C 814.666 177, 814.360 177.431, 814.755 179.500 C 815.162 181.628, 815.782 182, 818.917 182 C 820.942 182, 823.140 181.460, 823.800 180.800 C 824.656 179.944, 825 173.644, 825 158.800 L 825 138 821.974 138 L 818.949 138 820.474 135.050 C 821.313 133.427, 822 131.177, 822 130.050 C 822 128.257, 821.374 128, 817 128 C 812.770 128, 812 127.710, 812 126.117 C 812 124.893, 811.109 124.063, 809.454 123.746 C 807.282 123.331, 806.601 123.862, 804.818 127.358 M 581 124.930 L 573.500 125.500 572.939 131.500 C 572.631 134.800, 571.777 138.724, 571.042 140.220 C 569.960 142.423, 569.947 143.232, 570.975 144.470 C 572.102 145.828, 570.991 146, 561.122 146 L 550 146 550 159.945 L 550 173.890 554.750 174.195 L 559.500 174.500 552 175.914 C 547.875 176.691, 544.327 177.464, 544.115 177.632 C 543.903 177.800, 544.451 179.040, 545.334 180.387 C 546.929 182.822, 546.976 182.828, 552.979 181.428 C 556.302 180.653, 560.645 179.339, 562.632 178.509 C 565.674 177.238, 566.048 176.763, 565 175.500 C 563.913 174.190, 564.668 174, 570.945 174 C 577.437 174, 578.079 174.176, 577.558 175.816 C 577.059 177.389, 578.351 177.978, 587.239 180.223 C 597.786 182.888, 598.949 182.749, 598.985 178.819 C 598.996 177.578, 597.365 176.751, 592.750 175.657 C 587.966 174.524, 587.262 174.156, 589.750 174.088 L 593 174 593 160 L 593 146 584.126 146 L 575.253 146 576.876 142.533 C 578.233 139.635, 579.034 139.060, 581.750 139.033 C 584.702 139.003, 585 139.275, 585 142 C 585 144.762, 585.278 145, 588.500 145 C 591.706 145, 592 144.753, 592 142.060 C 592 139.385, 592.337 139.093, 595.750 138.810 C 599.006 138.541, 599.542 138.138, 599.816 135.750 L 600.133 133 590.066 133 C 582.275 133, 580 132.694, 580 131.648 C 580 130.654, 582.413 130.140, 589.109 129.706 C 594.119 129.381, 598.430 128.903, 598.690 128.644 C 598.950 128.384, 598.660 127.233, 598.046 126.086 C 596.839 123.831, 596.112 123.782, 581 124.930 M 762.384 126.442 C 761.113 129.754, 762.456 131.493, 766.678 132 C 770.478 132.457, 771.200 133.042, 775.003 138.752 C 777.294 142.190, 781.209 146.676, 783.704 148.721 L 788.240 152.437 790.522 149.575 L 792.804 146.713 786.793 141.147 C 783.486 138.086, 779.437 133.201, 777.795 130.291 L 774.809 125 768.873 125 C 764.626 125, 762.780 125.410, 762.384 126.442 M 608.234 154.250 L 608.500 182.500 611.750 182.813 C 614.164 183.046, 615 182.725, 615 181.563 C 615 180.198, 617.529 180, 635 180 C 652.471 180, 655 180.198, 655 181.563 C 655 182.725, 655.836 183.046, 658.250 182.813 L 661.500 182.500 661.766 154.250 L 662.031 126 635 126 L 607.969 126 608.234 154.250 M 746.894 132.048 C 745.157 135.307, 741.501 140.064, 738.771 142.618 L 733.807 147.261 736.336 149.791 L 738.865 152.320 744.281 146.684 C 748.687 142.098, 756 130.881, 756 128.708 C 756 128.426, 754.662 127.729, 753.026 127.159 C 750.106 126.141, 749.994 126.230, 746.894 132.048 M 827 130 C 827 132.762, 827.278 133, 830.500 133 C 832.425 133, 834 133.449, 834 133.997 C 834 134.546, 832.422 136.741, 830.492 138.877 L 826.985 142.759 828.914 145.130 L 830.843 147.500 834.052 144.500 C 835.816 142.850, 838.123 139.588, 839.177 137.250 C 840.895 133.441, 841.452 133, 844.547 133 C 847.684 133, 848 133.263, 848 135.878 C 848 139.537, 845.940 141.274, 842.596 140.435 C 839.891 139.756, 839.284 140.971, 840.607 144.418 C 841.390 146.459, 848.741 146.511, 851.404 144.495 C 853.286 143.071, 854.818 136.897, 854.940 130.250 L 855 127 841 127 L 827 127 827 130 M 678.667 131.667 C 677.307 133.026, 678.072 134, 680.500 134 C 682.056 134, 683 133.433, 683 132.500 C 683 131, 679.925 130.409, 678.667 131.667 M 689 132.500 C 689 133.333, 689.889 134, 691 134 C 692.111 134, 693 133.333, 693 132.500 C 693 131.667, 692.111 131, 691 131 C 689.889 131, 689 131.667, 689 132.500 M 615 153 L 615 174 635 174 L 655 174 655 153 L 655 132 635 132 L 615 132 615 153 M 807.527 135.250 C 806.035 137.366, 806.066 137.520, 808.043 137.829 C 810.945 138.283, 812.676 137.473, 813.970 135.056 C 814.966 133.195, 814.788 133, 812.092 133 C 810.140 133, 808.567 133.775, 807.527 135.250 M 632 138 L 632 142 625 142 L 618 142 618 145.500 L 618 149 624.513 149 L 631.027 149 629.518 152.750 C 628.689 154.813, 625.446 158.875, 622.312 161.779 L 616.613 167.057 618.753 169.197 L 620.892 171.337 624.983 168.630 C 627.233 167.141, 630.295 164.157, 631.787 161.999 C 633.279 159.841, 634.786 158.059, 635.135 158.038 C 635.485 158.017, 638.564 160.986, 641.978 164.635 L 648.184 171.270 650.676 168.778 L 653.168 166.286 645.085 158.893 C 640.639 154.827, 637.001 150.938, 637.001 150.250 C 637 149.361, 639.166 149, 644.500 149 L 652 149 652 145.500 L 652 142 645.224 142 L 638.447 142 638.829 138 C 639.210 134.002, 639.208 134, 635.605 134 C 632.066 134, 632 134.073, 632 138 M 678.701 138.632 C 677.295 140.038, 678.059 141, 680.583 141 C 682.205 141, 683.012 140.535, 682.750 139.750 C 682.269 138.304, 679.730 137.603, 678.701 138.632 M 689 139.500 C 689 140.333, 689.889 141, 691 141 C 692.111 141, 693 140.333, 693 139.500 C 693 138.667, 692.111 138, 691 138 C 689.889 138, 689 138.667, 689 139.500 M 709.158 142.866 C 707.662 147.859, 707.696 148.331, 709.500 147.638 C 710.545 147.237, 711.023 147.736, 711.077 149.281 C 711.119 150.502, 711.722 153.300, 712.417 155.500 L 713.681 159.500 715.252 154 C 716.116 150.975, 717.079 146.363, 717.392 143.750 L 717.962 139 714.139 139 C 710.568 139, 710.240 139.254, 709.158 142.866 M 806 147 C 806 149.333, 806.444 150, 808 150 C 809.556 150, 810 149.333, 810 147 C 810 144.667, 809.556 144, 808 144 C 806.444 144, 806 144.667, 806 147 M 816 147 C 816 149.333, 816.444 150, 818 150 C 819.556 150, 820 149.333, 820 147 C 820 144.667, 819.556 144, 818 144 C 816.444 144, 816 144.667, 816 147 M 744 151.500 L 744 155 749 155 C 754.818 155, 754.956 155.404, 751.608 162.594 C 749.477 167.171, 747.142 169.636, 739.009 175.893 C 736.551 177.783, 736.543 177.838, 738.414 179.905 C 741.036 182.803, 742.079 182.586, 747.984 177.918 C 754.076 173.103, 758.372 166.730, 760.118 159.916 L 761.378 155 768.332 155 L 775.286 155 774.721 163.234 C 774.221 170.529, 773.857 171.727, 771.523 173.734 C 769.412 175.550, 767.684 176, 762.828 176 C 757.030 176, 756.793 176.098, 757.370 178.250 C 757.701 179.488, 757.979 180.838, 757.986 181.250 C 757.994 181.662, 761.539 182, 765.865 182 C 778.526 182, 780.547 178.977, 781.719 158.287 L 782.301 148 763.151 148 L 744 148 744 151.500 M 831 149.351 C 831 150.094, 829.928 152.718, 828.618 155.182 C 826.323 159.499, 826.300 159.746, 827.992 161.989 L 829.747 164.316 831.488 161.658 C 832.806 159.647, 834.054 159, 836.615 159 C 839.709 159, 840 159.258, 840 162 L 840 165 833 165 L 826 165 826 168 L 826 171 833 171 L 840 171 840 177 L 840 183 843.500 183 L 847 183 847 177 L 847 171 851.500 171 C 855.833 171, 856 170.889, 856 168 C 856 165.111, 855.833 165, 851.500 165 C 847.167 165, 847 164.889, 847 162 C 847 159.167, 847.222 159, 851 159 C 854.778 159, 855 158.833, 855 156 C 855 153.167, 854.778 153, 851 153 C 847.400 153, 847 152.750, 847 150.500 C 847 148.310, 846.567 148, 843.500 148 C 840.433 148, 840 148.310, 840 150.500 C 840 152.379, 839.474 153, 837.883 153 C 836.283 153, 835.890 152.528, 836.273 151.065 C 836.575 149.911, 836.185 148.901, 835.308 148.565 C 832.810 147.606, 831 147.937, 831 149.351 M 699.819 155.016 L 699.500 159.500 693.250 159.798 C 684.981 160.192, 685.186 162, 693.500 162 C 699.330 162, 700 162.206, 700 163.997 C 700 165.096, 698.441 167.720, 696.536 169.829 L 693.071 173.664 696.570 175.332 C 699.766 176.856, 700.277 176.864, 702.473 175.426 C 703.795 174.560, 706.031 172.337, 707.443 170.485 L 710.010 167.120 707.665 159.897 C 706.141 155.203, 705.039 153.129, 704.517 153.973 C 703.910 154.955, 703.277 154.693, 701.926 152.902 L 700.138 150.531 699.819 155.016 M 557 153 C 557 153.622, 562.667 154, 572 154 C 581.333 154, 587 153.622, 587 153 C 587 152.378, 581.333 152, 572 152 C 562.667 152, 557 152.378, 557 153 M 678 153.430 C 678 154.451, 678.903 155, 680.583 155 C 683.716 155, 683.373 152.652, 680.172 152.180 C 678.729 151.968, 678 152.388, 678 153.430 M 689 153.430 C 689 154.451, 689.903 155, 691.583 155 C 694.716 155, 694.373 152.652, 691.172 152.180 C 689.729 151.968, 689 152.388, 689 153.430 M 806 159 C 806 161.333, 806.444 162, 808 162 C 809.556 162, 810 161.333, 810 159 C 810 156.667, 809.556 156, 808 156 C 806.444 156, 806 156.667, 806 159 M 816 159 C 816 161.333, 816.444 162, 818 162 C 819.556 162, 820 161.333, 820 159 C 820 156.667, 819.556 156, 818 156 C 816.444 156, 816 156.667, 816 159 M 557 159.473 C 557 160.775, 559.225 161, 572.083 161 C 583.705 161, 587.071 160.713, 586.751 159.750 C 586.450 158.843, 582.310 158.424, 571.668 158.223 C 559.061 157.985, 557 158.161, 557 159.473 M 557 167 C 557 167.622, 562.667 168, 572 168 C 581.333 168, 587 167.622, 587 167 C 587 166.378, 581.333 166, 572 166 C 562.667 166, 557 166.378, 557 167 M 682.670 168.417 C 682.136 169.809, 683.889 171, 686.471 171 C 687.190 171, 688.841 170.115, 690.139 169.033 L 692.500 167.067 687.857 167.033 C 684.749 167.011, 683.034 167.468, 682.670 168.417 M 464 244 C 462.095 245.905, 462 247.333, 462 274 C 462 300.667, 462.095 302.095, 464 304 C 465.989 305.989, 467.333 306, 699 306 C 930.667 306, 932.011 305.989, 934 304 C 935.905 302.095, 936 300.667, 936 274 C 936 247.333, 935.905 245.905, 934 244 C 932.011 242.011, 930.667 242, 699 242 C 467.333 242, 465.989 242.011, 464 244 M 466.452 247.264 C 466.185 247.961, 466.086 260.449, 466.233 275.016 L 466.500 301.500 699 301.500 L 931.500 301.500 931.500 274 L 931.500 246.500 699.219 246.248 C 512.397 246.045, 466.844 246.244, 466.452 247.264 M 544 273 C 544 289, 544.360 298, 545 298 C 545.640 298, 546 289, 546 273 C 546 257, 545.640 248, 545 248 C 544.360 248, 544 257, 544 273 M 479.750 260.455 C 477.137 262.858, 475 265.584, 475 266.511 C 475 268.021, 475.367 267.981, 478.500 266.133 L 482 264.067 482 276.034 L 482 288 484.525 288 L 487.051 288 486.775 272.332 C 486.611 262.989, 486.096 256.547, 485.500 256.375 C 484.950 256.215, 482.363 258.051, 479.750 260.455 M 502.357 256.992 C 500.002 257.942, 497 261.714, 497 263.723 C 497 265.792, 500.807 265.182, 501.499 263.002 C 502.249 260.640, 506.639 259.282, 508.905 260.712 C 509.782 261.265, 510.500 263.019, 510.500 264.609 C 510.500 266.911, 509.837 267.792, 507.250 268.930 C 503.087 270.763, 503.084 272.785, 507.243 273.187 C 511.464 273.595, 513.641 277.500, 511.844 281.443 C 509.725 286.093, 503.266 286.073, 501.141 281.410 C 499.749 278.356, 496.304 278.458, 496.845 281.536 C 497.343 284.370, 499.041 286.118, 502.836 287.704 C 512.206 291.621, 521.650 279.717, 514.501 273.001 C 512.323 270.955, 512.183 270.452, 513.411 269.077 C 519.167 262.631, 510.867 253.557, 502.357 256.992 M 526.476 257.396 C 523.778 258.572, 521 262.453, 521 265.047 C 521 267.204, 524.621 265.775, 526.203 262.994 C 527.497 260.721, 528.624 260, 530.882 260 C 534.071 260, 537 262.212, 537 264.621 C 537 267.458, 534.096 271.532, 528.965 275.893 C 524.299 279.859, 520.014 285.290, 520.004 287.250 C 520.002 287.663, 524.725 288, 530.500 288 C 540.333 288, 541 287.873, 541 286 C 541 284.174, 540.333 284, 533.324 284 L 525.649 284 533.328 276.750 C 539.902 270.543, 541.006 269.023, 541.003 266.184 C 540.999 261.578, 539.411 259.070, 535.452 257.415 C 531.354 255.703, 530.366 255.701, 526.476 257.396 M 909 262.500 L 905.608 266 913 266 L 920.392 266 917 262.500 C 915.134 260.575, 913.334 259, 913 259 C 912.666 259, 910.866 260.575, 909 262.500 M 909.267 285.733 L 913 289.467 916.733 285.733 L 920.467 282 913 282 L 905.533 282 909.267 285.733 M 701.500 367.161 C 698.741 368.678, 696.049 372.153, 696.022 374.231 C 696.009 375.280, 697.046 376.224, 698.655 376.628 C 700.797 377.166, 701.682 376.784, 703.238 374.647 C 705.317 371.794, 709.660 371.060, 711.800 373.200 C 714.670 376.070, 713.069 379.199, 704 388.447 C 696.468 396.127, 695 398.144, 695 400.812 L 695 404 707.500 404 L 720 404 720 401 L 720 398 711.773 398 L 703.547 398 711.348 390.153 C 718.010 383.451, 719.232 381.691, 719.714 378.097 C 720.389 373.066, 718.727 369.427, 714.835 367.415 C 711.602 365.743, 704.330 365.604, 701.500 367.161 M 771.482 370.086 C 764.291 375.984, 764.450 375.735, 766.457 377.953 C 768.262 379.947, 768.276 379.946, 771.210 377.476 C 772.829 376.114, 774.569 375, 775.077 375 C 775.599 375, 776 381.303, 776 389.500 L 776 404 779 404 L 782 404 782 385 L 782 366 779.232 366 C 777.472 366, 774.649 367.488, 771.482 370.086 M 878.250 370.614 C 875.362 373.126, 873.014 375.477, 873.032 375.840 C 873.049 376.203, 873.725 377.375, 874.534 378.444 C 875.961 380.331, 876.108 380.288, 879.502 376.998 L 883 373.608 883 388.804 L 883 404 886 404 L 889 404 889 385 L 889 366 886.250 366.024 C 884.441 366.040, 881.704 367.610, 878.250 370.614 M 546.270 382.483 C 544.493 383.255, 542.129 385.375, 541.015 387.193 L 538.991 390.500 542.746 391.629 C 546.150 392.653, 546.738 392.536, 549.055 390.379 C 553.746 386.010, 560 388.088, 560 394.015 C 560 397.410, 556.875 400, 552.777 400 C 550.270 400, 550 400.340, 550 403.500 C 550 406.542, 550.319 407, 552.435 407 C 556.381 407, 559.993 408.807, 560.889 411.230 C 563.033 417.026, 556.937 422.459, 551.033 420.014 C 549.402 419.338, 547.790 417.914, 547.453 416.851 C 547 415.426, 546.268 415.080, 544.669 415.538 C 543.476 415.879, 541.712 416.378, 540.750 416.647 C 538.194 417.360, 538.606 419.760, 541.842 422.996 C 547.153 428.307, 556.708 429.162, 563.578 424.941 C 569.550 421.271, 570.947 412.467, 566.411 407.077 C 564.987 405.385, 563.155 404, 562.340 404 C 561.444 404, 562.269 402.668, 564.429 400.632 C 567.366 397.861, 568 396.555, 568 393.267 C 568 383.852, 556.382 378.086, 546.270 382.483 M 585.465 382.644 C 582.130 384.309, 578 389.658, 578 392.312 C 578 393.583, 578.888 394, 581.599 394 C 584.336 394, 585.893 393.256, 588.101 390.892 C 590.488 388.336, 591.491 387.907, 593.746 388.472 C 597.741 389.475, 599 390.866, 599 394.276 C 599 396.791, 597.128 399.204, 588 408.456 C 577.994 418.598, 577 419.939, 577 423.303 L 577 427 592.500 427 L 608 427 608 423.500 L 608 420 597.526 420 L 587.051 420 596.457 410.750 C 607.161 400.225, 609.042 396.324, 606.760 389.388 C 604.415 382.262, 593.287 378.737, 585.465 382.644 M 666.415 382.421 C 662.559 384.100, 659 388.523, 659 391.635 C 659 393.721, 659.464 394, 662.933 394 C 666.023 394, 667.005 393.560, 667.518 391.943 C 668.983 387.329, 678.075 387.509, 679.558 392.181 C 680.690 395.749, 677.961 399.687, 667.920 408.975 C 658.237 417.932, 658 418.257, 658 422.576 L 658 427 673 427 L 688 427 688 423.500 L 688 420 677.750 419.971 L 667.500 419.941 676.126 411.721 C 680.870 407.199, 685.532 401.963, 686.487 400.084 C 688.621 395.885, 688.070 388.854, 685.368 385.821 C 681.310 381.265, 672.642 379.710, 666.415 382.421 M 734.270 382.483 C 732.493 383.255, 730.129 385.375, 729.015 387.193 L 726.991 390.500 730.746 391.629 C 734.150 392.653, 734.738 392.536, 737.055 390.379 C 741.746 386.010, 748 388.088, 748 394.015 C 748 397.410, 744.875 400, 740.777 400 C 738.270 400, 738 400.340, 738 403.500 C 738 406.542, 738.319 407, 740.435 407 C 744.381 407, 747.993 408.807, 748.889 411.230 C 751.033 417.026, 744.937 422.459, 739.033 420.014 C 737.402 419.338, 735.790 417.914, 735.453 416.851 C 735 415.426, 734.268 415.080, 732.669 415.538 C 731.476 415.879, 729.712 416.378, 728.750 416.647 C 726.194 417.360, 726.606 419.760, 729.842 422.996 C 735.153 428.307, 744.708 429.162, 751.578 424.941 C 757.550 421.271, 758.947 412.467, 754.411 407.077 C 752.987 405.385, 751.155 404, 750.340 404 C 749.444 404, 750.269 402.668, 752.429 400.632 C 755.366 397.861, 756 396.555, 756 393.267 C 756 383.852, 744.382 378.086, 734.270 382.483 M 508.493 387.617 L 501.871 393.234 504.098 395.605 C 506.518 398.180, 506.713 398.121, 512.250 393.113 L 515 390.626 515 408.813 L 515 427 519 427 L 523 427 523 404.500 L 523 382 519.057 382 C 515.720 382, 514.096 382.863, 508.493 387.617 M 803.635 387.644 L 796.834 393.289 799.405 395.859 L 801.975 398.430 805.988 394.512 L 810 390.594 810 408.797 L 810 427 814 427 L 818 427 818 404.500 L 818 382 814.217 382 C 811.091 382, 809.256 382.979, 803.635 387.644 M 841.493 387.617 L 834.871 393.234 837.098 395.605 C 839.518 398.180, 839.713 398.121, 845.250 393.113 L 848 390.626 848 408.813 L 848 427 852 427 L 856 427 856 404.500 L 856 382 852.057 382 C 848.720 382, 847.096 382.863, 841.493 387.617 M 615 402 L 615 405 632.500 405 L 650 405 650 402 L 650 399 632.500 399 L 615 399 615 402 M 615 413.500 L 615 417 632.500 417 L 650 417 650 413.500 L 650 410 632.500 410 L 615 410 615 413.500 M 1123.655 499.829 C 1122.248 501.384, 1122 504.278, 1122 519.174 C 1122 534.873, 1122.190 536.862, 1123.829 538.345 C 1125.482 539.842, 1130.780 540, 1179.174 540 C 1229.749 540, 1232.781 539.900, 1234.345 538.171 C 1235.752 536.616, 1236 533.722, 1236 518.826 C 1236 503.127, 1235.810 501.138, 1234.171 499.655 C 1232.518 498.158, 1227.220 498, 1178.826 498 C 1128.251 498, 1125.219 498.100, 1123.655 499.829 M 1124.447 501.277 C 1124.174 501.988, 1124.074 510.429, 1124.225 520.035 L 1124.500 537.500 1179 537.500 L 1233.500 537.500 1233.500 519 L 1233.500 500.500 1179.222 500.241 C 1135.557 500.033, 1124.847 500.236, 1124.447 501.277 M 252 504.448 C 252 505.301, 252.684 506, 253.519 506 C 255.251 506, 254.737 509.482, 252.287 514.340 C 250.796 517.298, 251.245 520.585, 252.993 519.504 C 253.622 519.116, 254 520.915, 254 524.292 L 254 529.702 259.250 529.601 C 265.168 529.487, 265.963 528.856, 265.985 524.250 C 266.003 520.292, 264.269 519.952, 263.432 523.750 C 262.306 528.851, 262.158 528.522, 262.079 520.750 C 262.002 513.171, 261.945 513, 259.500 513 C 256.927 513, 256.588 512.139, 257.630 508.250 C 258.049 506.688, 258.987 506, 260.700 506 C 265.559 506, 262.417 503.504, 257.171 503.198 C 253.034 502.956, 252 503.206, 252 504.448 M 264.210 511.250 L 264.500 519.500 269.602 519.797 C 274.413 520.077, 274.678 520.234, 274.238 522.535 C 273.926 524.167, 274.304 525.180, 275.380 525.592 C 277.441 526.383, 276.475 528, 273.941 528 C 272.873 528, 272 528.675, 272 529.500 C 272 530.496, 272.996 531, 274.965 531 C 278.712 531, 280 528.714, 280 522.066 C 280 517.104, 279.939 517, 277 517 C 275.350 517, 274 516.550, 274 516 C 274 515.450, 275.125 515, 276.500 515 C 278.056 515, 279 514.433, 279 513.500 C 279 512.567, 278.056 512, 276.500 512 C 275.125 512, 274 511.550, 274 511 C 274 510.450, 275.125 510, 276.500 510 C 278.056 510, 279 509.433, 279 508.500 C 279 507.557, 278.049 507, 276.441 507 C 274.990 507, 274.149 506.567, 274.500 506 C 274.840 505.450, 276.216 505, 277.559 505 C 278.902 505, 280 504.550, 280 504 C 280 503.416, 276.653 503, 271.960 503 L 263.919 503 264.210 511.250 M 538.621 515.462 C 533.622 527.955, 533.361 529.003, 535.250 528.994 C 535.938 528.990, 538.392 524.153, 540.703 518.244 C 545.662 505.569, 545.845 504.878, 544.371 504.332 C 543.715 504.089, 541.308 508.748, 538.621 515.462 M 779.621 515.462 C 774.622 527.955, 774.361 529.003, 776.250 528.994 C 776.938 528.990, 779.392 524.153, 781.703 518.244 C 786.662 505.569, 786.845 504.878, 785.371 504.332 C 784.715 504.089, 782.308 508.748, 779.621 515.462 M 1039.621 515.462 C 1034.622 527.955, 1034.361 529.003, 1036.250 528.994 C 1036.938 528.990, 1039.392 524.153, 1041.703 518.244 C 1046.662 505.569, 1046.845 504.878, 1045.371 504.332 C 1044.715 504.089, 1042.308 508.748, 1039.621 515.462 M 164 516.500 C 164 527.333, 164.116 528, 166 528 C 167.733 528, 168 527.333, 168 523 L 168 518 173.500 518 L 179 518 179 523 C 179 527.333, 179.267 528, 181 528 C 182.884 528, 183 527.333, 183 516.500 C 183 505.667, 182.884 505, 181 505 C 179.296 505, 179 505.667, 179 509.500 L 179 514 173.500 514 L 168 514 168 509.500 C 168 505.667, 167.704 505, 166 505 C 164.116 505, 164 505.667, 164 516.500 M 186 506.961 C 186 508.625, 186.644 509, 189.500 509 L 193 509 193 518.500 C 193 527.333, 193.140 528, 195 528 C 196.860 528, 197 527.333, 197 518.500 L 197 509 200.573 509 C 203.437 509, 204.080 508.653, 203.812 507.250 C 203.529 505.770, 202.130 505.455, 194.739 505.211 C 186.517 504.939, 186 505.043, 186 506.961 M 206.713 505.621 C 206.321 506.013, 206 511.208, 206 517.167 C 206 527.333, 206.123 528, 208 528 C 209.852 528, 210.004 527.315, 210.055 518.750 L 210.109 509.500 211.881 514 C 212.856 516.475, 214.453 520.662, 215.430 523.303 C 217.963 530.153, 219.618 529.174, 223.551 518.500 L 226.866 509.500 226.933 518.750 C 226.995 527.311, 227.149 528, 229 528 C 230.885 528, 231 527.333, 231 516.437 L 231 504.873 227.780 505.187 C 224.751 505.481, 224.386 505.964, 221.615 513.342 L 218.670 521.183 215.585 513.342 C 212.962 506.675, 212.120 505.456, 209.963 505.204 C 208.567 505.041, 207.104 505.229, 206.713 505.621 M 236 516.500 L 236 528 243.073 528 C 249.270 528, 250.105 527.783, 249.814 526.250 C 249.564 524.931, 248.313 524.425, 244.741 524.195 L 240 523.890 240 514.445 C 240 505.667, 239.859 505, 238 505 C 236.116 505, 236 505.667, 236 516.500 M 267.500 506 C 267.160 506.550, 267.809 507, 268.941 507 C 270.073 507, 271 506.550, 271 506 C 271 505.450, 270.352 505, 269.559 505 C 268.766 505, 267.840 505.450, 267.500 506 M 306.483 508.149 C 303.923 510.397, 303.205 511.605, 303.974 512.374 C 304.742 513.142, 305.611 513.099, 307.011 512.225 C 308.090 511.551, 309.204 511, 309.486 511 C 309.769 511, 310 514.825, 310 519.500 C 310 526.389, 310.284 528, 311.500 528 C 312.746 528, 313 526.056, 313 516.500 C 313 503.420, 312.540 502.831, 306.483 508.149 M 324.223 506.557 C 323 507.413, 322 508.490, 322 508.950 C 322 510.333, 325.259 511.141, 326.367 510.033 C 326.935 509.465, 328.435 509, 329.700 509 C 331.487 509, 332 509.558, 332 511.500 C 332 513.500, 331.500 514, 329.500 514 C 327.667 514, 327 514.533, 327 516 C 327 517.290, 327.667 518, 328.878 518 C 331.655 518, 333.635 520.769, 332.335 522.834 C 330.900 525.113, 328.553 525.411, 326.693 523.550 C 323.587 520.444, 320.623 522.820, 323.557 526.063 C 324.712 527.339, 326.622 528, 329.155 528 C 335.733 528, 339.266 522.161, 335.324 517.805 C 334.038 516.385, 333.922 515.678, 334.824 514.776 C 338.303 511.297, 334.553 505, 329 505 C 327.595 505, 325.445 505.701, 324.223 506.557 M 343.291 507.618 C 340.838 510.072, 340.787 510.302, 342.497 511.258 C 343.891 512.038, 344.620 511.873, 345.580 510.560 C 347.179 508.374, 351.362 508.882, 351.826 511.318 C 352.052 512.502, 350.221 514.944, 346.578 518.318 C 342.963 521.667, 340.987 524.296, 340.992 525.750 C 341 527.883, 341.391 528, 348.500 528 C 354.500 528, 356 527.700, 356 526.500 C 356 525.389, 354.833 525, 351.500 525 C 349.025 525, 347 524.709, 347 524.354 C 347 523.998, 349.025 521.543, 351.500 518.897 C 356.507 513.543, 357.208 510.208, 354 507 C 351.155 504.155, 346.484 504.425, 343.291 507.618 M 384.223 506.557 C 383 507.413, 382 508.736, 382 509.498 C 382 511.792, 384.009 512.302, 385.989 510.510 C 388.343 508.380, 391.412 508.909, 391.786 511.510 C 391.975 512.823, 390.190 515.359, 386.536 518.966 C 378.737 526.666, 379.027 528, 388.500 528 C 394.500 528, 396 527.700, 396 526.500 C 396 525.389, 394.833 525, 391.500 525 C 389.025 525, 387 524.644, 387 524.208 C 387 523.773, 389.025 521.429, 391.500 519 C 394.996 515.569, 396 513.862, 396 511.348 C 396 507.643, 393.086 505, 389 505 C 387.595 505, 385.445 505.701, 384.223 506.557 M 498 507 C 496.900 508.100, 496 509.464, 496 510.031 C 496 511.940, 499.073 512.282, 500.364 510.517 C 501.989 508.294, 505.414 508.921, 505.786 511.510 C 505.975 512.823, 504.190 515.359, 500.536 518.966 C 492.639 526.763, 492.976 528, 503 528 C 509.444 528, 511 527.708, 511 526.500 C 511 525.367, 509.778 525, 506 525 C 503.250 525, 501 524.573, 501 524.051 C 501 523.529, 502.527 521.937, 504.393 520.514 C 508.302 517.533, 510.985 512.658, 510.254 509.864 C 509.031 505.186, 501.560 503.440, 498 507 M 623.922 507.078 C 621.894 509.106, 621.860 509.342, 623.462 510.238 C 624.620 510.887, 625.558 510.842, 626.296 510.104 C 627.629 508.771, 631.662 508.643, 632.444 509.910 C 633.432 511.508, 631.902 513.873, 629.676 514.192 C 626.167 514.694, 626.413 517.633, 630.024 518.355 C 632.508 518.852, 633.077 519.417, 632.821 521.137 C 632.321 524.500, 629.512 525.773, 627.203 523.684 C 625.419 522.069, 622 522.245, 622 523.952 C 622 525.749, 625.952 528, 629.106 528 C 635.838 528, 639.401 522.310, 635.422 517.913 C 633.981 516.322, 633.995 515.938, 635.574 513.527 C 637.232 510.997, 637.220 510.772, 635.303 508.193 C 632.589 504.542, 627.005 503.995, 623.922 507.078 M 740.044 508.035 C 737.386 510.307, 736.862 511.262, 737.771 512.171 C 738.680 513.080, 739.420 512.930, 740.976 511.521 C 742.994 509.696, 743 509.718, 743 518.845 C 743 527.333, 743.146 528, 745 528 C 746.884 528, 747 527.333, 747 516.500 C 747 503.389, 746.373 502.626, 740.044 508.035 M 867 507.950 C 864.229 510.266, 863.756 511.134, 864.726 512.115 C 865.700 513.098, 866.369 512.976, 867.976 511.521 C 869.994 509.696, 870 509.718, 870 518.845 C 870 527.383, 870.137 528, 872.033 528 C 873.973 528, 874.053 527.486, 873.783 516.762 C 873.460 503.931, 872.813 503.090, 867 507.950 M 886 507.950 C 883.229 510.266, 882.756 511.134, 883.726 512.115 C 884.700 513.098, 885.369 512.976, 886.976 511.521 C 888.994 509.696, 889 509.718, 889 518.845 C 889 527.383, 889.137 528, 891.033 528 C 892.973 528, 893.053 527.486, 892.783 516.762 C 892.460 503.931, 891.813 503.090, 886 507.950 M 1000.044 508.035 C 997.386 510.307, 996.862 511.262, 997.771 512.171 C 998.680 513.080, 999.420 512.930, 1000.976 511.521 C 1002.994 509.696, 1003 509.718, 1003 518.845 C 1003 527.333, 1003.146 528, 1005 528 C 1006.884 528, 1007 527.333, 1007 516.500 C 1007 503.389, 1006.373 502.626, 1000.044 508.035 M 1145.374 508.784 C 1141.456 509.378, 1138.676 513.489, 1138.752 518.574 C 1138.844 524.641, 1141.805 528, 1147.064 528 C 1151.752 528, 1155.643 525.110, 1154.596 522.406 C 1153.913 520.643, 1153.706 520.707, 1151.845 523.250 C 1148.519 527.797, 1143.645 526.735, 1142.032 521.112 C 1139.837 513.459, 1147.247 507.231, 1151.434 513.209 C 1152.627 514.913, 1153.253 515.147, 1154.167 514.233 C 1156.717 511.683, 1150.729 507.973, 1145.374 508.784 M 1163.329 509.458 C 1159.402 511.166, 1158 513.671, 1158 518.980 C 1158 525.953, 1164.537 530.034, 1171.455 527.379 C 1175.200 525.942, 1177.273 517.247, 1174.920 512.850 C 1174.325 511.739, 1172.315 510.194, 1170.452 509.415 C 1166.473 507.753, 1167.259 507.748, 1163.329 509.458 M 1179 518.500 C 1179 526.278, 1179.272 528, 1180.500 528 C 1181.583 528, 1182 526.889, 1182 524 L 1182 520 1186.345 520 C 1191.091 520, 1194 517.844, 1194 514.326 C 1194 510.794, 1190.858 509, 1184.671 509 L 1179 509 1179 518.500 M 1198.473 514.237 C 1201.139 518.194, 1202 520.515, 1202 523.737 C 1202 526.860, 1202.401 528, 1203.500 528 C 1204.583 528, 1205 526.889, 1205 524.002 C 1205 521.028, 1205.896 518.757, 1208.500 515.133 C 1212.412 509.688, 1212.640 509, 1210.530 509 C 1209.721 509, 1208.034 510.797, 1206.780 512.992 C 1205.526 515.188, 1204.269 516.988, 1203.986 516.992 C 1203.703 516.997, 1202.360 515.200, 1201 513 C 1199.605 510.743, 1197.748 509, 1196.737 509 C 1195.238 509, 1195.520 509.851, 1198.473 514.237 M 1215.204 515.670 C 1215.392 519.893, 1215.959 522.492, 1216.750 522.754 C 1217.671 523.058, 1218 521.304, 1218 516.083 C 1218 510.361, 1217.703 509, 1216.454 509 C 1215.185 509, 1214.961 510.193, 1215.204 515.670 M 267 511 C 267 511.550, 267.900 512, 269 512 C 270.100 512, 271 511.550, 271 511 C 271 510.450, 270.100 510, 269 510 C 267.900 510, 267 510.450, 267 511 M 408.250 513.552 C 404.262 515.415, 401 517.561, 401 518.321 C 401 519.081, 404.208 521.119, 408.129 522.851 C 416.095 526.370, 417 526.559, 417 524.707 C 417 523.996, 414.637 522.230, 411.750 520.783 L 406.500 518.153 411.750 515.878 C 415.299 514.340, 417 513.019, 417 511.802 C 417 509.497, 416.874 509.523, 408.250 513.552 M 475 511.879 C 475 513.164, 476.612 514.423, 480.250 515.980 L 485.500 518.227 480.250 520.594 C 477.259 521.943, 475 523.615, 475 524.481 C 475 526.481, 474.909 526.499, 483.535 522.790 C 491.218 519.486, 492.673 517.610, 488.750 516.064 C 487.512 515.576, 483.913 514.018, 480.750 512.601 C 475.410 510.209, 475 510.158, 475 511.879 M 523 513.489 C 518.875 515.342, 515.374 517.465, 515.220 518.206 C 515.046 519.041, 517.793 520.781, 522.435 522.777 C 531.094 526.500, 531 526.482, 531 524.481 C 531 523.609, 528.761 521.970, 525.750 520.638 L 520.500 518.315 525.750 516.034 C 529.408 514.445, 531 513.185, 531 511.877 C 531 510.845, 530.888 510.027, 530.750 510.060 C 530.612 510.093, 527.125 511.636, 523 513.489 M 602 511.854 C 602 513.043, 603.729 514.468, 607.072 516.034 L 612.145 518.410 607.072 520.648 C 603.906 522.046, 602 523.512, 602 524.550 C 602 525.501, 602.555 526.001, 603.295 525.717 C 611.373 522.617, 617.980 519.260, 617.989 518.250 C 617.995 517.563, 617.831 517, 617.625 517 C 617.419 517, 613.819 515.436, 609.625 513.525 C 602.894 510.458, 602 510.262, 602 511.854 M 650 513.397 C 645.875 515.232, 642.372 517.380, 642.214 518.170 C 642.028 519.107, 644.465 520.721, 649.214 522.806 C 657.493 526.441, 658 526.542, 658 524.566 C 658 523.778, 655.638 522.029, 652.750 520.681 L 647.500 518.230 652.750 515.982 C 656.405 514.416, 658 513.166, 658 511.867 C 658 510.840, 657.888 510.014, 657.750 510.030 C 657.612 510.047, 654.125 511.562, 650 513.397 M 716 511.879 C 716 513.164, 717.612 514.423, 721.250 515.980 L 726.500 518.227 721.250 520.594 C 718.259 521.943, 716 523.615, 716 524.481 C 716 526.481, 715.909 526.499, 724.535 522.790 C 732.218 519.486, 733.673 517.610, 729.750 516.064 C 728.513 515.576, 724.913 514.018, 721.750 512.601 C 716.410 510.209, 716 510.158, 716 511.879 M 764 513.489 C 759.875 515.342, 756.374 517.465, 756.220 518.206 C 756.046 519.041, 758.793 520.781, 763.435 522.777 C 772.094 526.500, 772 526.482, 772 524.481 C 772 523.609, 769.761 521.970, 766.750 520.638 L 761.500 518.315 766.750 516.034 C 770.408 514.445, 772 513.185, 772 511.877 C 772 510.845, 771.888 510.027, 771.750 510.060 C 771.612 510.093, 768.125 511.636, 764 513.489 M 843 511.854 C 843 513.043, 844.729 514.468, 848.072 516.034 L 853.145 518.410 848.072 520.648 C 844.906 522.046, 843 523.512, 843 524.550 C 843 525.501, 843.555 526.001, 844.295 525.717 C 852.373 522.617, 858.980 519.260, 858.989 518.250 C 858.995 517.563, 858.831 517, 858.625 517 C 858.419 517, 854.819 515.436, 850.625 513.525 C 843.894 510.458, 843 510.262, 843 511.854 M 910 513.397 C 905.875 515.232, 902.372 517.380, 902.214 518.170 C 902.028 519.107, 904.465 520.721, 909.214 522.806 C 917.493 526.441, 918 526.542, 918 524.566 C 918 523.778, 915.638 522.029, 912.750 520.681 L 907.500 518.230 912.750 515.982 C 916.405 514.416, 918 513.166, 918 511.867 C 918 510.840, 917.888 510.014, 917.750 510.030 C 917.612 510.047, 914.125 511.562, 910 513.397 M 976 511.879 C 976 513.164, 977.612 514.423, 981.250 515.980 L 986.500 518.227 981.250 520.594 C 978.259 521.943, 976 523.615, 976 524.481 C 976 526.481, 975.909 526.499, 984.535 522.790 C 992.218 519.486, 993.673 517.610, 989.750 516.064 C 988.513 515.576, 984.913 514.018, 981.750 512.601 C 976.410 510.209, 976 510.158, 976 511.879 M 1024 513.489 C 1019.875 515.342, 1016.374 517.465, 1016.220 518.206 C 1016.046 519.041, 1018.793 520.781, 1023.435 522.777 C 1032.094 526.500, 1032 526.482, 1032 524.481 C 1032 523.609, 1029.761 521.970, 1026.750 520.638 L 1021.500 518.315 1026.750 516.034 C 1030.408 514.445, 1032 513.185, 1032 511.877 C 1032 510.845, 1031.888 510.027, 1031.750 510.060 C 1031.612 510.093, 1028.125 511.636, 1024 513.489 M 1103 511.854 C 1103 513.043, 1104.729 514.468, 1108.072 516.034 L 1113.145 518.410 1108.072 520.648 C 1104.906 522.046, 1103 523.512, 1103 524.550 C 1103 525.501, 1103.555 526.001, 1104.295 525.717 C 1112.373 522.617, 1118.980 519.260, 1118.989 518.250 C 1118.995 517.563, 1118.831 517, 1118.625 517 C 1118.419 517, 1114.819 515.436, 1110.625 513.525 C 1103.894 510.458, 1103 510.262, 1103 511.854 M 1162.655 512.829 C 1160.120 515.630, 1160.456 522.505, 1163.223 524.443 C 1164.445 525.299, 1166.245 526, 1167.223 526 C 1170.178 526, 1173 522.336, 1173 518.500 C 1173 512.200, 1166.466 508.618, 1162.655 512.829 M 1182 514.560 C 1182 518.047, 1182.076 518.114, 1185.649 517.810 C 1192.684 517.212, 1192.436 511, 1185.378 511 C 1182.173 511, 1182 511.183, 1182 514.560 M 423.223 513.557 C 419.561 516.121, 420.332 519.516, 425 521.383 C 430.091 523.420, 430.225 525.264, 425.250 524.828 C 420.602 524.421, 419.758 527.301, 424.371 527.828 C 433.185 528.835, 436.472 521.631, 428.412 518.971 C 426.535 518.352, 425 517.505, 425 517.089 C 425 515.560, 426.309 515.095, 428.026 516.014 C 429.265 516.677, 430.138 516.538, 430.960 515.549 C 431.885 514.434, 431.712 513.916, 430.130 513.070 C 427.408 511.613, 425.840 511.724, 423.223 513.557 M 461.671 512.662 C 461.307 513.026, 459.432 513.265, 457.504 513.193 L 454 513.061 454 524.030 C 454 534.333, 454.122 535, 456 535 C 457.659 535, 458 534.333, 458 531.095 L 458 527.190 461.990 527.726 C 468.362 528.580, 472.088 523.826, 470.001 517.503 C 468.754 513.725, 463.602 510.731, 461.671 512.662 M 550.186 513.055 C 548.333 513.798, 547.935 514.616, 548.186 517.159 C 548.440 519.729, 549.117 520.541, 551.735 521.417 C 555.890 522.808, 555.886 524.500, 551.727 524.500 C 549.525 524.500, 548.500 524.977, 548.500 526 C 548.500 527.044, 549.763 527.592, 552.656 527.803 C 556.012 528.048, 557.110 527.681, 558.359 525.898 C 560.344 523.063, 558.970 520.234, 554.923 518.823 C 553.315 518.263, 552 517.473, 552 517.069 C 552 515.559, 553.318 515.100, 555.026 516.014 C 556.274 516.682, 557.145 516.530, 558.004 515.496 C 559.002 514.292, 558.744 513.853, 556.544 513.017 C 553.425 511.831, 553.234 511.832, 550.186 513.055 M 588.682 512.651 C 588.312 513.021, 586.432 513.265, 584.504 513.193 L 581 513.061 581 524.030 C 581 534.333, 581.122 535, 583 535 C 584.659 535, 585 534.333, 585 531.095 L 585 527.190 588.884 527.711 C 591.953 528.123, 593.212 527.788, 594.884 526.116 C 597.569 523.431, 597.777 516.992, 595.250 514.773 C 593.093 512.879, 589.587 511.746, 588.682 512.651 M 664.223 513.557 C 660.561 516.121, 661.332 519.516, 666 521.383 C 671.091 523.420, 671.225 525.264, 666.250 524.828 C 661.602 524.421, 660.758 527.301, 665.371 527.828 C 674.185 528.835, 677.472 521.631, 669.412 518.971 C 667.535 518.352, 666 517.505, 666 517.089 C 666 515.560, 667.309 515.095, 669.026 516.014 C 670.265 516.677, 671.138 516.538, 671.960 515.549 C 672.885 514.434, 672.712 513.916, 671.130 513.070 C 668.408 511.613, 666.840 511.724, 664.223 513.557 M 702.671 512.662 C 702.307 513.026, 700.432 513.265, 698.504 513.193 L 695 513.061 695 524.030 C 695 534.333, 695.122 535, 697 535 C 698.659 535, 699 534.333, 699 531.095 L 699 527.190 702.990 527.726 C 709.362 528.580, 713.088 523.826, 711.001 517.503 C 709.754 513.725, 704.602 510.731, 702.671 512.662 M 791.186 513.055 C 789.333 513.798, 788.935 514.616, 789.186 517.159 C 789.440 519.729, 790.117 520.541, 792.735 521.417 C 796.890 522.808, 796.886 524.500, 792.727 524.500 C 790.525 524.500, 789.500 524.977, 789.500 526 C 789.500 527.044, 790.763 527.592, 793.656 527.803 C 797.012 528.048, 798.110 527.681, 799.359 525.898 C 801.344 523.063, 799.970 520.234, 795.923 518.823 C 794.315 518.263, 793 517.473, 793 517.069 C 793 515.559, 794.318 515.100, 796.026 516.014 C 797.274 516.682, 798.145 516.530, 799.004 515.496 C 800.002 514.292, 799.744 513.853, 797.544 513.017 C 794.425 511.831, 794.234 511.832, 791.186 513.055 M 829.682 512.651 C 829.312 513.021, 827.432 513.265, 825.504 513.193 L 822 513.061 822 524.030 C 822 534.333, 822.122 535, 824 535 C 825.659 535, 826 534.333, 826 531.095 L 826 527.190 829.884 527.711 C 832.953 528.123, 834.212 527.788, 835.884 526.116 C 838.569 523.431, 838.777 516.992, 836.250 514.773 C 834.093 512.879, 830.587 511.746, 829.682 512.651 M 924.223 513.557 C 920.561 516.121, 921.332 519.516, 926 521.383 C 931.091 523.420, 931.225 525.264, 926.250 524.828 C 921.602 524.421, 920.758 527.301, 925.371 527.828 C 934.185 528.835, 937.472 521.631, 929.412 518.971 C 927.535 518.352, 926 517.505, 926 517.089 C 926 515.560, 927.309 515.095, 929.026 516.014 C 930.265 516.677, 931.138 516.538, 931.960 515.549 C 932.885 514.434, 932.712 513.916, 931.130 513.070 C 928.408 511.613, 926.840 511.724, 924.223 513.557 M 962.671 512.662 C 962.307 513.026, 960.432 513.265, 958.504 513.193 L 955 513.061 955 524.030 C 955 534.333, 955.122 535, 957 535 C 958.659 535, 959 534.333, 959 531.095 L 959 527.190 962.990 527.726 C 969.362 528.580, 973.088 523.826, 971.001 517.503 C 969.754 513.725, 964.602 510.731, 962.671 512.662 M 1051.186 513.055 C 1049.333 513.798, 1048.935 514.616, 1049.186 517.159 C 1049.440 519.729, 1050.117 520.541, 1052.735 521.417 C 1056.890 522.808, 1056.886 524.500, 1052.727 524.500 C 1050.525 524.500, 1049.500 524.977, 1049.500 526 C 1049.500 527.044, 1050.763 527.592, 1053.656 527.803 C 1057.012 528.048, 1058.110 527.681, 1059.359 525.898 C 1061.344 523.063, 1059.970 520.234, 1055.923 518.823 C 1054.315 518.263, 1053 517.473, 1053 517.069 C 1053 515.559, 1054.318 515.100, 1056.026 516.014 C 1057.274 516.682, 1058.145 516.530, 1059.004 515.496 C 1060.002 514.292, 1059.744 513.853, 1057.544 513.017 C 1054.425 511.831, 1054.234 511.832, 1051.186 513.055 M 1089.682 512.651 C 1089.312 513.021, 1087.432 513.265, 1085.504 513.193 L 1082 513.061 1082 524.030 C 1082 534.333, 1082.122 535, 1084 535 C 1085.659 535, 1086 534.333, 1086 531.095 L 1086 527.190 1089.884 527.711 C 1092.953 528.123, 1094.212 527.788, 1095.884 526.116 C 1098.569 523.431, 1098.777 516.992, 1096.250 514.773 C 1094.093 512.879, 1090.587 511.746, 1089.682 512.651 M 284.500 514 C 283.577 515.494, 284.861 517, 287.059 517 C 288.333 517, 289 516.313, 289 515 C 289 512.879, 285.653 512.135, 284.500 514 M 436 519.300 C 436 526.215, 437.026 528, 441 528 C 442.430 528, 444.140 527.460, 444.800 526.800 C 445.733 525.867, 446 525.867, 446 526.800 C 446 527.460, 446.900 528, 448 528 C 449.822 528, 450 527.333, 450 520.500 C 450 513.667, 449.822 513, 448 513 C 446.273 513, 446 513.667, 446 517.878 C 446 523.039, 444.241 525.690, 441.513 524.643 C 440.415 524.222, 440 522.546, 440 518.531 C 440 513.667, 439.759 513, 438 513 C 436.212 513, 436 513.667, 436 519.300 M 562.015 517.750 C 562.034 524.053, 563.810 527.415, 567.334 527.822 C 568.867 527.999, 570.769 527.607, 571.560 526.950 C 572.582 526.102, 573 526.081, 573 526.878 C 573 527.495, 573.675 528, 574.500 528 C 575.700 528, 576 526.500, 576 520.500 C 576 514.500, 575.700 513, 574.500 513 C 573.413 513, 573 514.118, 573 517.066 C 573 521.745, 571.564 525, 569.500 525 C 567.436 525, 566 521.745, 566 517.066 C 566 513.667, 565.672 513, 564 513 C 562.279 513, 562.002 513.662, 562.015 517.750 M 677 518.566 C 677 525.952, 678.184 528, 682.452 528 C 684.312 528, 686.060 527.438, 686.338 526.750 C 686.741 525.750, 686.858 525.750, 686.921 526.750 C 686.964 527.438, 687.900 528, 689 528 C 690.822 528, 691 527.333, 691 520.500 C 691 513.667, 690.822 513, 689 513 C 687.273 513, 687 513.667, 687 517.878 C 687 523.039, 685.241 525.690, 682.513 524.643 C 681.415 524.222, 681 522.546, 681 518.531 C 681 513.667, 680.759 513, 679 513 C 677.240 513, 677 513.667, 677 518.566 M 804 519.300 C 804 526.215, 805.026 528, 809 528 C 810.430 528, 812.140 527.460, 812.800 526.800 C 813.733 525.867, 814 525.867, 814 526.800 C 814 527.460, 814.900 528, 816 528 C 817.822 528, 818 527.333, 818 520.500 C 818 513.667, 817.822 513, 816 513 C 814.273 513, 814 513.667, 814 517.878 C 814 523.039, 812.241 525.690, 809.513 524.643 C 808.415 524.222, 808 522.546, 808 518.531 C 808 513.667, 807.759 513, 806 513 C 804.212 513, 804 513.667, 804 519.300 M 937 518.566 C 937 525.952, 938.184 528, 942.452 528 C 944.312 528, 946.060 527.438, 946.338 526.750 C 946.741 525.750, 946.858 525.750, 946.921 526.750 C 946.964 527.438, 947.900 528, 949 528 C 950.822 528, 951 527.333, 951 520.500 C 951 513.667, 950.822 513, 949 513 C 947.273 513, 947 513.667, 947 517.878 C 947 523.039, 945.241 525.690, 942.513 524.643 C 941.415 524.222, 941 522.546, 941 518.531 C 941 513.667, 940.759 513, 939 513 C 937.240 513, 937 513.667, 937 518.566 M 1064 519.300 C 1064 526.215, 1065.026 528, 1069 528 C 1070.430 528, 1072.140 527.460, 1072.800 526.800 C 1073.733 525.867, 1074 525.867, 1074 526.800 C 1074 527.460, 1074.900 528, 1076 528 C 1077.822 528, 1078 527.333, 1078 520.500 C 1078 513.667, 1077.822 513, 1076 513 C 1074.273 513, 1074 513.667, 1074 517.878 C 1074 523.039, 1072.241 525.690, 1069.513 524.643 C 1068.415 524.222, 1068 522.546, 1068 518.531 C 1068 513.667, 1067.759 513, 1066 513 C 1064.212 513, 1064 513.667, 1064 519.300 M 360 515.500 C 360 516.716, 361.611 517, 368.500 517 C 375.389 517, 377 516.716, 377 515.500 C 377 514.284, 375.389 514, 368.500 514 C 361.611 514, 360 514.284, 360 515.500 M 267 516 C 267 516.550, 267.900 517, 269 517 C 270.100 517, 271 516.550, 271 516 C 271 515.450, 270.100 515, 269 515 C 267.900 515, 267 515.450, 267 516 M 257 521 C 257 523.750, 257.450 526, 258 526 C 258.550 526, 259 523.750, 259 521 C 259 518.250, 258.550 516, 258 516 C 257.450 516, 257 518.250, 257 521 M 459.011 517.487 C 457.379 519.453, 458.510 523.710, 460.861 524.456 C 465.054 525.787, 468.123 521.968, 466.020 518.038 C 464.740 515.645, 460.797 515.335, 459.011 517.487 M 586.200 517.200 C 584.555 518.845, 584.691 522.499, 586.452 523.960 C 589.769 526.713, 594.577 522.479, 592.937 518.250 C 591.974 515.767, 588.218 515.182, 586.200 517.200 M 700.011 517.487 C 698.379 519.453, 699.510 523.710, 701.861 524.456 C 706.054 525.787, 709.123 521.968, 707.020 518.038 C 705.740 515.645, 701.797 515.335, 700.011 517.487 M 827.200 517.200 C 825.555 518.845, 825.691 522.499, 827.452 523.960 C 830.769 526.713, 835.577 522.479, 833.937 518.250 C 832.974 515.767, 829.218 515.182, 827.200 517.200 M 960.011 517.487 C 958.379 519.453, 959.510 523.710, 961.861 524.456 C 966.054 525.787, 969.123 521.968, 967.020 518.038 C 965.740 515.645, 961.797 515.335, 960.011 517.487 M 1087.200 517.200 C 1085.555 518.845, 1085.691 522.499, 1087.452 523.960 C 1090.769 526.713, 1095.577 522.479, 1093.937 518.250 C 1092.974 515.767, 1089.218 515.182, 1087.200 517.200 M 276.079 521.583 C 276.127 522.748, 276.364 522.985, 276.683 522.188 C 276.972 521.466, 276.936 520.603, 276.604 520.271 C 276.272 519.939, 276.036 520.529, 276.079 521.583 M 360 521.500 C 360 522.716, 361.611 523, 368.500 523 C 375.389 523, 377 522.716, 377 521.500 C 377 520.284, 375.389 520, 368.500 520 C 361.611 520, 360 520.284, 360 521.500 M 267 525 C 267 527.889, 267.417 529, 268.500 529 C 269.540 529, 270.046 527.850, 270.150 525.250 C 270.270 522.234, 270.381 522.038, 270.716 524.250 C 271.277 527.949, 273 527.761, 273 524 C 273 521.333, 272.667 521, 270 521 C 267.167 521, 267 521.222, 267 525 M 284.915 524.602 C 284.027 525.672, 283.988 526.388, 284.775 527.175 C 286.156 528.556, 289 527.522, 289 525.638 C 289 523.555, 286.344 522.881, 284.915 524.602 M 1215 526.500 C 1215 527.325, 1215.675 528, 1216.500 528 C 1217.325 528, 1218 527.325, 1218 526.500 C 1218 525.675, 1217.325 525, 1216.500 525 C 1215.675 525, 1215 525.675, 1215 526.500 M 899.655 587.829 C 898.248 589.384, 898 592.278, 898 607.174 C 898 622.873, 898.190 624.862, 899.829 626.345 C 901.483 627.842, 906.849 628, 956.174 628 C 1007.718 628, 1010.780 627.900, 1012.345 626.171 C 1013.752 624.616, 1014 621.722, 1014 606.826 C 1014 591.127, 1013.810 589.138, 1012.171 587.655 C 1010.517 586.158, 1005.151 586, 955.826 586 C 904.282 586, 901.220 586.100, 899.655 587.829 M 900.447 589.277 C 900.174 589.988, 900.074 598.429, 900.225 608.035 L 900.500 625.500 956 625.500 L 1011.500 625.500 1011.500 607 L 1011.500 588.500 956.222 588.242 C 911.742 588.034, 900.847 588.236, 900.447 589.277 M 483 592.500 C 483 593.325, 483.711 594, 484.579 594 C 485.838 594, 486.017 594.660, 485.459 597.250 C 485.074 599.038, 484.142 601.709, 483.387 603.186 C 482.207 605.496, 482.224 606.081, 483.507 607.365 C 484.406 608.263, 485 610.722, 485 613.545 C 485 617.919, 485.151 618.193, 487.250 617.630 C 488.488 617.299, 490.288 617.021, 491.250 617.014 C 492.770 617.002, 493 615.947, 493 609 C 493 601.133, 492.958 601, 490.500 601 C 487.747 601, 487.529 600.368, 488.975 596.565 C 489.579 594.977, 490.722 594, 491.975 594 C 493.108 594, 494 593.339, 494 592.500 C 494 591.348, 492.722 591, 488.500 591 C 484.278 591, 483 591.348, 483 592.500 M 495.210 599.250 L 495.500 607.500 500.644 607.799 C 505.034 608.053, 505.718 608.361, 505.316 609.899 C 505.057 610.891, 505.533 612.390, 506.375 613.232 C 508.108 614.965, 507.531 616, 504.833 616 C 503.825 616, 503 616.675, 503 617.500 C 503 619.337, 508.041 619.559, 509.800 617.800 C 510.460 617.140, 511 613.990, 511 610.800 C 511 605.317, 510.866 605, 508.559 605 C 507.216 605, 505.840 604.550, 505.500 604 C 505.149 603.433, 505.990 603, 507.441 603 C 509.049 603, 510 602.443, 510 601.500 C 510 600.557, 509.049 600, 507.441 600 C 505.990 600, 505.149 599.567, 505.500 599 C 505.840 598.450, 506.991 598, 508.059 598 C 509.127 598, 510 597.325, 510 596.500 C 510 595.557, 509.049 595, 507.441 595 C 505.990 595, 505.149 594.567, 505.500 594 C 505.840 593.450, 507.216 593, 508.559 593 C 509.902 593, 511 592.550, 511 592 C 511 591.416, 507.653 591, 502.960 591 L 494.919 591 495.210 599.250 M 541.079 591.629 C 541.036 592.249, 539.665 593.310, 538.033 593.986 C 532.751 596.174, 532.730 602.828, 537.998 605.159 C 540.447 606.244, 541 607.088, 541 609.744 C 541 613.333, 540.779 613.487, 537.870 611.931 C 536.397 611.142, 535.471 611.194, 534.346 612.128 C 532.988 613.255, 533.016 613.538, 534.601 614.697 C 535.581 615.414, 537.174 616, 538.141 616 C 539.109 616, 540.359 616.788, 540.920 617.750 C 541.513 618.768, 541.952 618.967, 541.970 618.225 C 541.986 617.524, 543.101 616.532, 544.448 616.020 C 545.794 615.508, 547.658 613.926, 548.590 612.504 C 550.750 609.206, 549.394 605.772, 545.043 603.522 C 542.844 602.385, 542 601.232, 542 599.366 C 542 597.143, 542.333 596.867, 544.386 597.382 C 547.730 598.221, 549.929 595.567, 547.130 594.070 C 546.031 593.481, 544.464 593, 543.649 593 C 542.834 593, 541.940 592.438, 541.662 591.750 C 541.344 590.962, 541.129 590.918, 541.079 591.629 M 888.079 591.629 C 888.036 592.249, 886.665 593.310, 885.033 593.986 C 879.751 596.174, 879.730 602.828, 884.998 605.159 C 887.447 606.244, 888 607.088, 888 609.744 C 888 613.333, 887.779 613.487, 884.870 611.931 C 883.397 611.142, 882.471 611.194, 881.346 612.128 C 879.988 613.255, 880.016 613.538, 881.601 614.697 C 882.581 615.414, 884.174 616, 885.141 616 C 886.109 616, 887.359 616.788, 887.920 617.750 C 888.513 618.768, 888.952 618.967, 888.970 618.225 C 888.986 617.524, 890.101 616.532, 891.448 616.020 C 892.794 615.508, 894.658 613.926, 895.590 612.504 C 897.750 609.206, 896.394 605.772, 892.043 603.522 C 889.844 602.385, 889 601.232, 889 599.366 C 889 597.143, 889.333 596.867, 891.386 597.382 C 894.730 598.221, 896.929 595.567, 894.130 594.070 C 893.031 593.481, 891.464 593, 890.649 593 C 889.834 593, 888.940 592.438, 888.662 591.750 C 888.344 590.962, 888.129 590.918, 888.079 591.629 M 387 604.500 L 387 616 396.339 616 C 405.331 616, 405.721 615.907, 406.818 613.500 C 407.806 611.332, 408.603 611, 412.818 611 C 417.033 611, 417.830 611.332, 418.818 613.500 C 419.979 616.048, 424.701 617.250, 423.727 614.750 C 418.491 601.317, 414.362 593, 412.929 593 C 411.766 593, 409.791 596.369, 406.382 604.170 C 403.697 610.313, 401.355 614.588, 401.177 613.670 C 400.927 612.380, 399.733 612, 395.927 612 L 391 612 391 602.500 C 391 593.667, 390.860 593, 389 593 C 387.116 593, 387 593.667, 387 604.500 M 422 594.961 C 422 596.625, 422.644 597, 425.500 597 L 429 597 429 606.500 C 429 615.333, 429.140 616, 431 616 C 432.860 616, 433 615.333, 433 606.500 L 433 597 436.573 597 C 439.437 597, 440.080 596.653, 439.812 595.250 C 439.529 593.770, 438.130 593.455, 430.739 593.211 C 422.517 592.939, 422 593.043, 422 594.961 M 442.706 593.627 C 442.318 594.015, 442 599.208, 442 605.167 L 442 616 450 616 C 457.333 616, 458 615.833, 458 614 C 458 612.242, 457.333 612, 452.500 612 C 447.056 612, 447 611.970, 447 609 C 447 606.067, 447.111 606, 452 606 C 455.778 606, 457 605.633, 457 604.500 C 457 603.367, 455.778 603, 452 603 C 447.111 603, 447 602.933, 447 600 C 447 597.026, 447.047 597, 452.573 597 C 457.342 597, 458.098 596.747, 457.813 595.250 C 457.539 593.815, 456.211 593.448, 450.446 593.210 C 446.578 593.051, 443.095 593.239, 442.706 593.627 M 460.636 594.250 C 461.051 594.938, 462.652 597.255, 464.195 599.400 C 465.738 601.545, 467 603.741, 467 604.281 C 467 604.820, 465.425 607.453, 463.500 610.133 C 461.575 612.812, 460 615.229, 460 615.502 C 460 615.776, 461.042 616, 462.316 616 C 463.973 616, 465.266 614.871, 466.863 612.030 C 468.090 609.846, 469.480 607.821, 469.952 607.530 C 470.424 607.238, 471.996 609.025, 473.447 611.500 C 475.489 614.984, 476.665 616, 478.657 616 C 481.221 616, 481.224 615.990, 479.483 613.250 C 478.522 611.737, 476.697 609.103, 475.428 607.396 L 473.122 604.293 476.561 599.186 C 480.578 593.221, 480.630 593, 478.014 593 C 476.805 593, 474.993 594.565, 473.381 597 C 471.925 599.200, 470.575 601, 470.380 601 C 470.185 601, 468.889 599.200, 467.500 597 C 465.632 594.042, 464.312 593, 462.428 593 C 460.656 593, 460.111 593.380, 460.636 594.250 M 499 594 C 499 594.550, 499.675 595, 500.500 595 C 501.325 595, 502 594.550, 502 594 C 502 593.450, 501.325 593, 500.500 593 C 499.675 593, 499 593.450, 499 594 M 557 595.950 C 554.229 598.266, 553.756 599.134, 554.726 600.115 C 555.700 601.098, 556.369 600.976, 557.976 599.521 C 559.994 597.696, 560 597.718, 560 606.845 C 560 615.383, 560.137 616, 562.033 616 C 563.973 616, 564.053 615.486, 563.783 604.762 C 563.460 591.931, 562.813 591.090, 557 595.950 M 573.922 595.078 C 571.894 597.106, 571.860 597.342, 573.462 598.238 C 574.620 598.887, 575.558 598.842, 576.296 598.104 C 577.629 596.771, 581.662 596.643, 582.444 597.910 C 583.432 599.508, 581.902 601.873, 579.676 602.192 C 576.167 602.694, 576.413 605.633, 580.024 606.355 C 582.508 606.852, 583.077 607.417, 582.821 609.137 C 582.321 612.500, 579.512 613.773, 577.203 611.684 C 575.419 610.069, 572 610.245, 572 611.952 C 572 613.749, 575.952 616, 579.106 616 C 585.838 616, 589.401 610.310, 585.422 605.913 C 583.981 604.322, 583.995 603.938, 585.574 601.527 C 587.232 598.997, 587.220 598.772, 585.303 596.193 C 582.589 592.542, 577.005 591.995, 573.922 595.078 M 594.223 594.557 C 593 595.413, 592 596.736, 592 597.498 C 592 599.792, 594.009 600.302, 595.989 598.510 C 598.343 596.380, 601.412 596.909, 601.786 599.510 C 601.975 600.823, 600.190 603.359, 596.536 606.966 C 588.737 614.666, 589.027 616, 598.500 616 C 604.500 616, 606 615.700, 606 614.500 C 606 613.389, 604.833 613, 601.500 613 C 599.025 613, 597 612.644, 597 612.208 C 597 611.773, 599.025 609.429, 601.500 607 C 604.996 603.569, 606 601.862, 606 599.348 C 606 595.643, 603.086 593, 599 593 C 597.595 593, 595.445 593.701, 594.223 594.557 M 634 595 C 632.900 596.100, 632 597.464, 632 598.031 C 632 599.940, 635.073 600.282, 636.364 598.517 C 637.989 596.294, 641.414 596.921, 641.786 599.510 C 641.975 600.823, 640.190 603.359, 636.536 606.966 C 628.639 614.763, 628.976 616, 639 616 C 645.444 616, 647 615.708, 647 614.500 C 647 613.367, 645.778 613, 642 613 C 639.250 613, 637 612.573, 637 612.051 C 637 611.529, 638.527 609.937, 640.393 608.514 C 644.302 605.533, 646.985 600.658, 646.254 597.864 C 645.031 593.186, 637.560 591.440, 634 595 M 654.488 598.452 C 650.464 604.742, 650.396 605, 652.773 605 C 653.773 605, 655.367 603.475, 656.430 601.500 C 657.467 599.575, 658.592 598, 658.930 598 C 659.268 598, 660.393 599.575, 661.430 601.500 C 662.555 603.588, 664.072 605, 665.193 605 C 666.827 605, 666.916 604.708, 665.878 602.750 C 663.102 597.515, 659.906 593, 658.975 593 C 658.425 593, 656.406 595.453, 654.488 598.452 M 673.607 594.582 C 673.273 595.452, 673 597.941, 673 600.113 C 673 602.701, 672.483 604.261, 671.500 604.638 C 670.675 604.955, 670 605.786, 670 606.485 C 670 607.183, 670.675 608.315, 671.500 609 C 672.395 609.743, 673 611.929, 673 614.422 C 673 616.720, 673.540 619.140, 674.200 619.800 C 675.925 621.525, 680 621.314, 680 619.500 C 680 618.667, 679.111 618, 678 618 C 676.278 618, 676 617.333, 676 613.200 C 676 610.560, 675.511 607.911, 674.913 607.313 C 674.130 606.530, 674.130 606.038, 674.913 605.554 C 675.511 605.184, 676 602.841, 676 600.347 C 676 596.654, 676.371 595.716, 678 595.290 C 680.996 594.506, 680.409 593, 677.107 593 C 675.391 593, 673.967 593.644, 673.607 594.582 M 683 595 C 681.900 596.100, 681 597.464, 681 598.031 C 681 599.940, 684.073 600.282, 685.364 598.517 C 686.989 596.294, 690.414 596.921, 690.786 599.510 C 690.975 600.823, 689.190 603.359, 685.536 606.966 C 677.639 614.763, 677.976 616, 688 616 C 694.444 616, 696 615.708, 696 614.500 C 696 613.367, 694.778 613, 691 613 C 688.250 613, 686 612.573, 686 612.051 C 686 611.529, 687.527 609.937, 689.393 608.514 C 693.302 605.533, 695.985 600.658, 695.254 597.864 C 694.031 593.186, 686.560 591.440, 683 595 M 696 593.820 C 696 594.341, 696.900 595.002, 698 595.290 C 699.629 595.716, 700 596.654, 700 600.347 C 700 602.841, 700.451 605.161, 701.003 605.502 C 701.673 605.916, 701.673 606.743, 701.003 607.995 C 700.451 609.025, 700 611.646, 700 613.818 C 700 616.926, 699.574 617.878, 698 618.290 C 695.253 619.008, 695.474 621, 698.300 621 C 701.665 621, 703 619.132, 703 614.422 C 703 611.929, 703.605 609.743, 704.500 609 C 706.305 607.502, 706.457 605.319, 704.795 604.765 C 704.132 604.544, 703.345 601.919, 703.045 598.932 C 702.517 593.665, 702.401 593.490, 699.250 593.187 C 697.462 593.014, 696 593.299, 696 593.820 M 710.445 595.061 C 708.848 596.825, 708.790 597.255, 710.040 598.046 C 711.980 599.273, 713 599.235, 713 597.934 C 713 597.347, 714.237 597.010, 715.750 597.184 C 719.277 597.589, 719.681 601.332, 716.250 601.820 C 714.837 602.020, 714 602.832, 714 604 C 714 605.168, 714.837 605.980, 716.250 606.180 C 717.829 606.405, 718.591 607.282, 718.804 609.122 C 719.193 612.472, 716.572 613.605, 713.337 611.485 C 711.745 610.442, 710.422 610.224, 709.343 610.828 C 707.905 611.632, 707.962 611.962, 709.865 613.865 C 712.611 616.611, 718.983 616.781, 721.345 614.171 C 723.518 611.770, 723.503 606.381, 721.319 605.159 C 719.745 604.278, 719.745 604.112, 721.319 602.538 C 723.562 600.295, 723.441 597.441, 721 595 C 718.326 592.326, 712.891 592.358, 710.445 595.061 M 731.488 598.452 C 727.464 604.742, 727.396 605, 729.773 605 C 730.773 605, 732.367 603.475, 733.430 601.500 C 734.467 599.575, 735.592 598, 735.930 598 C 736.268 598, 737.393 599.575, 738.430 601.500 C 739.555 603.588, 741.072 605, 742.193 605 C 743.827 605, 743.916 604.708, 742.878 602.750 C 740.102 597.515, 736.906 593, 735.975 593 C 735.425 593, 733.406 595.453, 731.488 598.452 M 750.607 594.582 C 750.273 595.452, 750 597.941, 750 600.113 C 750 602.701, 749.483 604.261, 748.500 604.638 C 747.675 604.955, 747 605.786, 747 606.485 C 747 607.183, 747.675 608.315, 748.500 609 C 749.395 609.743, 750 611.929, 750 614.422 C 750 616.720, 750.540 619.140, 751.200 619.800 C 752.925 621.525, 757 621.314, 757 619.500 C 757 618.667, 756.111 618, 755 618 C 753.278 618, 753 617.333, 753 613.200 C 753 610.560, 752.511 607.911, 751.913 607.313 C 751.130 606.530, 751.130 606.038, 751.913 605.554 C 752.511 605.184, 753 602.841, 753 600.347 C 753 596.654, 753.371 595.716, 755 595.290 C 757.996 594.506, 757.409 593, 754.107 593 C 752.391 593, 750.967 593.644, 750.607 594.582 M 761.044 596.035 C 758.386 598.307, 757.862 599.262, 758.771 600.171 C 759.680 601.080, 760.420 600.930, 761.976 599.521 C 763.994 597.696, 764 597.718, 764 606.845 C 764 615.333, 764.146 616, 766 616 C 767.884 616, 768 615.333, 768 604.500 C 768 591.389, 767.373 590.626, 761.044 596.035 M 773 593.820 C 773 594.341, 773.900 595.002, 775 595.290 C 776.629 595.716, 777 596.654, 777 600.347 C 777 602.841, 777.451 605.161, 778.003 605.502 C 778.673 605.916, 778.673 606.743, 778.003 607.995 C 777.451 609.025, 777 611.646, 777 613.818 C 777 616.926, 776.574 617.878, 775 618.290 C 772.253 619.008, 772.474 621, 775.300 621 C 778.665 621, 780 619.132, 780 614.422 C 780 611.929, 780.605 609.743, 781.500 609 C 783.305 607.502, 783.457 605.319, 781.795 604.765 C 781.132 604.544, 780.345 601.919, 780.045 598.932 C 779.517 593.665, 779.401 593.490, 776.250 593.187 C 774.462 593.014, 773 593.299, 773 593.820 M 789.044 596.035 C 786.386 598.307, 785.862 599.262, 786.771 600.171 C 787.680 601.080, 788.420 600.930, 789.976 599.521 C 791.994 597.696, 792 597.718, 792 606.845 C 792 615.333, 792.146 616, 794 616 C 795.884 616, 796 615.333, 796 604.500 C 796 591.389, 795.373 590.626, 789.044 596.035 M 808 595.950 C 805.229 598.266, 804.756 599.134, 805.726 600.115 C 806.700 601.098, 807.369 600.976, 808.976 599.521 C 810.994 597.696, 811 597.718, 811 606.845 C 811 615.383, 811.137 616, 813.033 616 C 814.973 616, 815.053 615.486, 814.783 604.762 C 814.460 591.931, 813.813 591.090, 808 595.950 M 827.488 598.452 C 823.464 604.742, 823.396 605, 825.773 605 C 826.773 605, 828.367 603.475, 829.430 601.500 C 830.467 599.575, 831.592 598, 831.930 598 C 832.268 598, 833.393 599.575, 834.430 601.500 C 835.555 603.588, 837.072 605, 838.193 605 C 839.827 605, 839.916 604.708, 838.878 602.750 C 836.102 597.515, 832.906 593, 831.975 593 C 831.425 593, 829.406 595.453, 827.488 598.452 M 845.975 595.565 C 845.439 596.976, 845 599.514, 845 601.205 C 845 602.948, 844.242 604.869, 843.250 605.640 C 841.583 606.937, 841.583 607.051, 843.250 608.050 C 844.416 608.749, 845 610.343, 845 612.827 C 845 617.526, 847.362 621, 850.557 621 C 853.494 621, 853.817 619.026, 851 618.290 C 849.426 617.878, 849 616.926, 849 613.818 C 849 611.646, 848.549 609.025, 847.997 607.995 C 847.327 606.743, 847.327 605.916, 847.997 605.502 C 848.549 605.161, 849 602.841, 849 600.347 C 849 596.654, 849.371 595.716, 851 595.290 C 854.051 594.492, 853.383 593, 849.975 593 C 847.649 593, 846.725 593.592, 845.975 595.565 M 857.044 596.035 C 854.386 598.307, 853.862 599.262, 854.771 600.171 C 855.680 601.080, 856.420 600.930, 857.976 599.521 C 859.994 597.696, 860 597.718, 860 606.845 C 860 615.333, 860.146 616, 862 616 C 863.884 616, 864 615.333, 864 604.500 C 864 591.389, 863.373 590.626, 857.044 596.035 M 869 593.820 C 869 594.341, 869.900 595.002, 871 595.290 C 872.629 595.716, 873 596.654, 873 600.347 C 873 602.841, 873.451 605.161, 874.003 605.502 C 874.673 605.916, 874.673 606.743, 874.003 607.995 C 873.451 609.025, 873 611.646, 873 613.818 C 873 616.926, 872.574 617.878, 871 618.290 C 868.253 619.008, 868.474 621, 871.300 621 C 874.665 621, 876 619.132, 876 614.422 C 876 611.929, 876.605 609.743, 877.500 609 C 879.305 607.502, 879.457 605.319, 877.795 604.765 C 877.132 604.544, 876.345 601.919, 876.045 598.932 C 875.517 593.665, 875.401 593.490, 872.250 593.187 C 870.462 593.014, 869 593.299, 869 593.820 M 922.374 596.784 C 918.456 597.378, 915.676 601.489, 915.752 606.574 C 915.844 612.641, 918.805 616, 924.064 616 C 928.752 616, 932.643 613.110, 931.596 610.406 C 930.913 608.643, 930.706 608.707, 928.845 611.250 C 925.519 615.797, 920.645 614.735, 919.032 609.112 C 916.837 601.459, 924.247 595.231, 928.434 601.209 C 929.627 602.913, 930.253 603.147, 931.167 602.233 C 933.717 599.683, 927.729 595.973, 922.374 596.784 M 940.329 597.458 C 936.402 599.166, 935 601.671, 935 606.980 C 935 613.953, 941.537 618.034, 948.455 615.379 C 952.200 613.942, 954.273 605.247, 951.920 600.850 C 951.325 599.739, 949.315 598.194, 947.452 597.415 C 943.473 595.753, 944.259 595.748, 940.329 597.458 M 538.380 598.452 C 538.074 599.251, 538.114 600.376, 538.470 600.952 C 539.635 602.837, 541 602.053, 541 599.500 C 541 596.789, 539.282 596.102, 538.380 598.452 M 885.380 598.452 C 885.074 599.251, 885.114 600.376, 885.470 600.952 C 886.635 602.837, 888 602.053, 888 599.500 C 888 596.789, 886.282 596.102, 885.380 598.452 M 956 606.500 C 956 614.278, 956.272 616, 957.500 616 C 958.583 616, 959 614.889, 959 612 L 959 608 963.345 608 C 968.091 608, 971 605.844, 971 602.326 C 971 598.794, 967.858 597, 961.671 597 L 956 597 956 606.500 M 975.473 602.237 C 978.139 606.194, 979 608.515, 979 611.737 C 979 614.860, 979.401 616, 980.500 616 C 981.583 616, 982 614.889, 982 612.002 C 982 609.028, 982.896 606.757, 985.500 603.133 C 989.412 597.688, 989.640 597, 987.530 597 C 986.721 597, 985.034 598.797, 983.780 600.992 C 982.526 603.188, 981.269 604.988, 980.986 604.992 C 980.703 604.997, 979.360 603.200, 978 601 C 976.605 598.743, 974.748 597, 973.737 597 C 972.238 597, 972.520 597.851, 975.473 602.237 M 992.204 603.670 C 992.392 607.893, 992.959 610.492, 993.750 610.754 C 994.671 611.058, 995 609.304, 995 604.083 C 995 598.361, 994.703 597, 993.454 597 C 992.185 597, 991.961 598.193, 992.204 603.670 M 499 599 C 499 599.550, 499.675 600, 500.500 600 C 501.325 600, 502 599.550, 502 599 C 502 598.450, 501.325 598, 500.500 598 C 499.675 598, 499 598.450, 499 599 M 411.124 602.073 C 409.527 606.656, 409.654 607, 412.948 607 C 415.830 607, 415.872 606.927, 414.811 603.750 C 413.188 598.884, 412.366 598.511, 411.124 602.073 M 939.655 600.829 C 937.120 603.630, 937.456 610.505, 940.223 612.443 C 941.445 613.299, 943.245 614, 944.223 614 C 947.178 614, 950 610.336, 950 606.500 C 950 600.200, 943.466 596.618, 939.655 600.829 M 959 602.560 C 959 606.047, 959.076 606.114, 962.649 605.810 C 969.684 605.212, 969.436 599, 962.378 599 C 959.173 599, 959 599.183, 959 602.560 M 516 603 C 516 604.333, 516.667 605, 518 605 C 519.333 605, 520 604.333, 520 603 C 520 601.667, 519.333 601, 518 601 C 516.667 601, 516 601.667, 516 603 M 610 603.500 C 610 604.716, 611.611 605, 618.500 605 C 625.389 605, 627 604.716, 627 603.500 C 627 602.284, 625.389 602, 618.500 602 C 611.611 602, 610 602.284, 610 603.500 M 499 604 C 499 604.550, 499.675 605, 500.500 605 C 501.325 605, 502 604.550, 502 604 C 502 603.450, 501.325 603, 500.500 603 C 499.675 603, 499 603.450, 499 604 M 488 609 C 488 611.750, 488.450 614, 489 614 C 489.550 614, 490 611.750, 490 609 C 490 606.250, 489.550 604, 489 604 C 488.450 604, 488 606.250, 488 609 M 542 609.441 C 542 612.605, 543.621 613.577, 544.903 611.181 C 545.600 609.878, 545.555 608.955, 544.753 608.153 C 542.945 606.345, 542 606.788, 542 609.441 M 889 609.441 C 889 612.605, 890.621 613.577, 891.903 611.181 C 892.600 609.878, 892.555 608.955, 891.753 608.153 C 889.945 606.345, 889 606.788, 889 609.441 M 610 609.500 C 610 610.716, 611.611 611, 618.500 611 C 625.389 611, 627 610.716, 627 609.500 C 627 608.284, 625.389 608, 618.500 608 C 611.611 608, 610 608.284, 610 609.500 M 494.446 612.435 C 493.764 616.074, 494.520 618.415, 496.069 617.457 C 497.298 616.698, 497.276 609, 496.045 609 C 495.520 609, 494.801 610.546, 494.446 612.435 M 498.014 610.750 C 498.036 613.625, 499.172 617, 500.117 617 C 500.602 617, 501 615.200, 501 613 C 501 610.111, 500.583 609, 499.500 609 C 498.675 609, 498.006 609.788, 498.014 610.750 M 502 612 C 502 614, 502.500 615, 503.500 615 C 505.154 615, 505.256 614.559, 504.370 611.250 C 503.501 608.007, 502 608.482, 502 612 M 516.688 611.646 C 515.147 613.186, 516.040 616, 518.070 616 C 519.625 616, 520.060 615.461, 519.820 613.828 C 519.488 611.573, 517.880 610.453, 516.688 611.646 M 992 614.500 C 992 615.325, 992.675 616, 993.500 616 C 994.325 616, 995 615.325, 995 614.500 C 995 613.675, 994.325 613, 993.500 613 C 992.675 613, 992 613.675, 992 614.500" stroke="none" fill="black" fill-rule="evenodd"/>
</svg>